<?xml version="1.0" encoding="UTF-8"?>
<svg id="Layer_2" data-name="Layer 2" xmlns="http://www.w3.org/2000/svg" xmlns:xlink="http://www.w3.org/1999/xlink" viewBox="0 0 152.38 211.39">
  <defs>
    <style>
      .cls-1 {
        fill: url(#linear-gradient);
      }
    </style>
    <linearGradient id="linear-gradient" x1="76.19" y1="0" x2="76.19" y2="211.39" gradientUnits="userSpaceOnUse">
      <stop offset="0" stop-color="#520171"/>
      <stop offset=".14" stop-color="#690859"/>
      <stop offset=".39" stop-color="#8d1236"/>
      <stop offset=".62" stop-color="#a71a1d"/>
      <stop offset=".83" stop-color="#b61f0e"/>
      <stop offset="1" stop-color="#bc2109"/>
    </linearGradient>
  </defs>
  <g id="Layer_1-2" data-name="Layer 1">
    <path class="cls-1" d="m32.98,165.04c-.65-.24-1.37-.37-1.93-.75-11.21-7.69-20.37-17.16-25.65-29.91-2.82-6.8-4.61-13.88-5.17-21.25-1.49-19.45,4.43-36.49,16.7-51.48,6.27-7.66,13.9-13.59,22.71-18.06,1.07-.54,2.13-1.16,3.09-1.87.99-.72,1.33-.17,1.61.63,1.15,3.34,2.28,6.69,3.44,10.03,1.21,3.45,2.4,6.91,3.69,10.33.42,1.12.18,1.73-.8,2.36-6.26,4.07-11.85,8.88-16.34,14.91-4.76,6.39-7.6,13.5-8.43,21.44-.8,7.63-.03,15.05,2.87,22.18,3.28,8.08,8.76,14.48,15.52,19.85.75.6,1.51,1.18,2.31,1.71.61.4.74.83.37,1.45-.72,1.22-1.37,2.47-2.12,3.67-2.55,4.09-5.15,8.16-7.7,12.26-.97,1.56-2.26,2.41-4.18,2.47Zm116.97-75.89c-3.56-13.79-11.24-25-21.59-34.54-4.59-4.24-9.93-7.41-15.33-10.48-1.78-1.02-5.04.2-5.75,2.14-2.03,5.54-4.02,11.1-6.07,16.64-.32.88-.12,1.36.6,1.89,1.82,1.32,3.64,2.64,5.36,4.08,6.39,5.33,11.83,11.47,15.6,18.96,4.19,8.31,5.92,17.05,4.11,26.26-2.58,13.1-10.22,22.91-20.68,30.75-.84.63-1.08,1-.51,1.96,2.11,3.54,4.12,7.13,6.19,10.69,1.32,2.26,2.58,4.57,4.02,6.75,1.22,1.84,3.24,2.13,5.15.96.42-.26.85-.53,1.23-.86,2.78-2.38,5.66-4.66,8.3-7.2,7.86-7.56,14.28-16.09,17.78-26.6,2.55-7.65,3.88-15.47,4.02-22.94-.05-6.74-.8-12.12-2.44-18.46Zm-90.71-22.07c11.08.01,22.16.03,33.24,0,.34,0,.86-.44.99-.79.65-1.75,1.23-3.53,1.76-5.33,2.7-9.12,6.06-17.97,10.8-26.24,2.61-4.55,5.33-9.03,8.06-13.51.56-.92.37-1.3-.47-1.84-4.17-2.66-8.3-5.41-12.46-8.09-1.08-.7-2.2-1.35-3.36-1.91-2.13-1.04-3.59-.7-4.78,1.33-1.23,2.11-2.22,4.36-3.34,6.54-.15.3-.46.74-.69.74-2.02.01-4.02-.15-5.58-1.68-.98-.96-2.09-1.86-2.81-3-.5-.79-.59-1.94-.54-2.91.02-.29,1.14-.55,1.78-.76.47-.15,1.02-.11,1.45-.33.41-.2.95-.56,1.03-.94.86-3.85.36-6.62-3.83-7.89-3.6-1.1-6.94-.19-10.2,1.49-1.92.99-2.93,2.1-2.62,4.46.38,2.89.21,2.89,3.15,3.49.58.12,1.44.5,1.54.91.24.95.5,2.06-.53,2.87-1.74,1.36-3.43,2.78-5.17,4.13-1.19.92-1.96.89-2.86-.35-.77-1.06-1.29-2.3-1.91-3.48-.6-1.14-1.08-2.35-1.77-3.43-1.09-1.71-2.56-2.08-4.43-1.24-.45.2-.89.45-1.32.7-5.17,3.03-10.33,6.07-15.5,9.11-.56.33-1.11.67-1.76,1.07,11.67,13.67,17.3,30.03,21.89,46.78.14.05.18.08.22.08Zm50.62,99.23c-13.86-21.09-20.28-44.04-19.33-69.06h-28.66c.74,24.93-5.08,48.03-19.18,69.06h67.18Zm-33.39,25.1c6.17,0,12.33,0,18.5,0,9.79,0,19.58-.04,29.37,0,1.12,0,1.39-.46,1.31-1.41-.06-.66-.11-1.33-.19-1.99-.52-4.37-2.25-8.14-5.53-11.15-3.66-3.37-8.11-4.38-12.91-4.38-17.58-.01-35.16-.04-52.74-.03-4.25,0-8.5,0-12.74.24-8.3.46-14.69,7.6-14.37,15.88q.11,2.87,2.95,2.87c15.45,0,30.91,0,46.36,0h0Zm18.61,19.73c7.58,0,15.16.05,22.74-.05,4.01-.05,6.71-2.05,7.43-5.58.42-2.05.33-4.21.38-6.32.03-1.14-.54-1.56-1.8-1.56-31.12.04-62.24.01-93.36.04-4.14,0-3.53-.66-3.8,3.66-.31,5,2.04,8.35,6.72,9.6,1.39.37,2.88.46,4.33.45,5.12-.03,10.24-.21,15.36-.23,10.33-.04,20.66-.01,30.99-.01,3.67,0,7.33,0,11,0Zm-19.85-119.52c8.66,0,17.32.01,25.99-.01,1.58,0,3.17-.08,4.73-.27,1.36-.16,2.07-1.26,1.52-2.42-1.21-2.56-3.09-4.47-6-4.92-1.6-.25-3.24-.28-4.86-.28-14.66-.02-29.32-.02-43.98-.01-.99,0-2,.1-2.98.26-2.03.33-3.59,1.35-4.27,3.37-.27.82-.41,1.7-.53,2.56-.23,1.57-.1,1.71,1.52,1.71,9.62,0,19.24,0,28.86,0h0Zm-21.27-11.99c13.33,0,26.66,0,39.99-.01,1.67,0,3.33.03,5-.04.31-.01.87-.42.87-.65.08-2.94-1.87-5.43-4.77-6.07-1.05-.23-2.14-.36-3.22-.35-4.12.02-8.24.16-12.36.15-6.5-.02-12.99-.18-19.49-.17-4.66,0-7.4,2.62-7.44,7.15.52,0,.97,0,1.42,0Z"/>
  </g>
</svg>