<?xml version="1.0" encoding="UTF-8"?>
<svg id="Layer_2" data-name="Layer 2" xmlns="http://www.w3.org/2000/svg" xmlns:xlink="http://www.w3.org/1999/xlink" viewBox="0 0 44.81 45.22">
  <defs>
    <style>
      .cls-1 {
        fill: url(#linear-gradient);
      }
    </style>
    <linearGradient id="linear-gradient" x1="0" y1="25.39" x2="44.81" y2="25.39" gradientTransform="translate(0 48) scale(1 -1)" gradientUnits="userSpaceOnUse">
      <stop offset="0" stop-color="#6fccdd"/>
      <stop offset="1" stop-color="#4c86c6"/>
    </linearGradient>
  </defs>
  <g id="Layer_2-2" data-name="Layer 2">
    <path class="cls-1" d="m22.3,45.22c-11.56.11-22.3-9.62-22.3-22.7S10.18-.34,22.97,0c11.58.31,22.33,9.79,21.82,23.5-.44,11.85-10.41,21.81-22.49,21.71h0ZM4.98,22.61c0,9.67,7.77,17.4,17.05,17.59,10.26.21,17.44-8.04,17.75-16.98.37-10.49-7.98-18.14-17.19-18.2-9.68-.06-17.64,7.59-17.61,17.58h0Zm8.97.07v-11c0-1.14.67-1.54,1.67-.97,6.24,3.59,12.48,7.19,18.71,10.8,1.02.59,1.01,1.52-.04,2.13-6.28,3.7-12.57,7.39-18.86,11.08-.8.47-1.47.05-1.48-.91v-11.13h0Zm3.97,6.3c3.63-2.14,7.18-4.24,10.79-6.37-3.61-2.08-7.18-4.13-10.79-6.22,0,0,0,12.59,0,12.59Z"/>
  </g>
</svg>