<?xml version="1.0" encoding="UTF-8"?>
<svg id="Layer_2" data-name="Layer 2" xmlns="http://www.w3.org/2000/svg" xmlns:xlink="http://www.w3.org/1999/xlink" viewBox="0 0 246.06 45.22">
  <defs>
    <style>
      .cls-1 {
        fill: #fff;
      }

      .cls-2 {
        fill: url(#linear-gradient);
      }
    </style>
    <linearGradient id="linear-gradient" x1="150.36" y1="22.61" x2="195.16" y2="22.61" gradientUnits="userSpaceOnUse">
      <stop offset="0" stop-color="#6fccdd"/>
      <stop offset="1" stop-color="#4c86c6"/>
    </linearGradient>
  </defs>
  <g id="Layer_1-2" data-name="Layer 1">
    <path class="cls-1" d="m90.11,43.98c-2.38,0-4.64.06-6.9-.05-.46-.02-1.09-.61-1.31-1.1-3.69-8.17-7.33-16.37-11.15-24.94v25.98h-7.27V1.05c2.4,0,4.85-.06,7.29.06.4.02.89.73,1.11,1.22,3.57,8.07,7.11,16.17,10.87,24.25V1.14h7.35v42.84Z"/>
    <path class="cls-1" d="m56.57,22.72c0,3.65.02,7.3,0,10.96-.04,5.58-2.7,9.15-8.07,10.44-3.57.86-7.21.88-10.79-.12-4.79-1.35-7.63-4.92-7.67-9.86-.07-7.61-.1-15.23,0-22.84.08-5.81,4.48-10.3,10.3-10.52,2.79-.11,5.68-.22,8.38.35,4.99,1.07,7.82,5.03,7.85,10.17.02,3.81,0,7.61,0,11.42h0Zm-18.55-.21c0,3.6-.03,7.21.01,10.81.02,2.22,1.07,3.51,2.98,3.88,3.87.75,6.33.09,7.27-1.96.08-.18.2-.37.23-.56.12-.96.31-1.93.32-2.9.03-6.13.03-12.25,0-18.38-.02-4.86-1.15-5.95-6.03-5.88-3.37.05-4.77,1.45-4.78,4.79,0,3.4,0,6.79,0,10.19Z"/>
    <path class="cls-1" d="m238.33,30.47h7.65c.22,4.44.25,8.81-3.68,11.79-1.37,1.04-3.15,1.81-4.84,2.08-3.6.58-7.26.64-10.77-.67-3.81-1.42-6.26-4.91-6.27-8.97-.03-7.87-.03-15.75,0-23.62.02-5.59,3.28-9.39,8.8-10.3,3.07-.5,6.15-.45,9.17.32,4.47,1.14,7.42,4.88,7.65,9.65.07,1.43.01,2.87.01,4.4h-7.71c0-1.16.02-2.28,0-3.4-.06-2.53-1.23-3.76-3.74-3.93-5.34-.37-6.46.68-6.46,6.05,0,6.23,0,12.46,0,18.68,0,2.89,1,4.84,4.43,4.73.97-.03,1.96,0,2.92-.11,1.66-.19,2.74-1.6,2.84-3.65.05-.97,0-1.94,0-3.06Z"/>
    <path class="cls-1" d="m15,8.39H.65V1.45h24.4c-.22,2.52.42,5.03-.94,7.56-4.71,8.78-9.24,17.65-13.84,26.49-.25.48-.46.98-.78,1.66h15.78v6.8H.02c0-1.92-.07-3.92.05-5.9.03-.57.64-1.09.93-1.66,4.66-9.19,9.3-18.39,13.95-27.6.04-.08.03-.19.05-.42Z"/>
    <path class="cls-1" d="m105.13,8.08v10.52h11.3v6.91h-11.29v11.33h14.01v7.05h-21.78V1.48h21.47v6.6h-13.71Z"/>
    <path class="cls-1" d="m123.34,25.62v-6.85h16.82v6.85h-16.82Z"/>
    <path class="cls-1" d="m205.35,18.7h9.96v6.87h-9.96v-6.87Z"/>
    <path class="cls-2" d="m172.65,45.22c-11.56.11-22.3-9.62-22.3-22.7,0-12.71,10.18-22.86,22.97-22.51,11.58.31,22.33,9.79,21.82,23.5-.44,11.85-10.41,21.81-22.49,21.71Zm-17.32-22.61c0,9.67,7.77,17.4,17.05,17.59,10.26.21,17.44-8.04,17.75-16.98.37-10.49-7.98-18.14-17.19-18.2-9.68-.06-17.64,7.59-17.61,17.58Zm8.97.07c0-3.67,0-7.34,0-11,0-1.14.67-1.54,1.67-.97,6.24,3.59,12.48,7.19,18.71,10.8,1.02.59,1.01,1.52-.04,2.13-6.28,3.7-12.57,7.39-18.86,11.08-.8.47-1.47.05-1.48-.91,0-3.71,0-7.42,0-11.13Zm3.97,6.3c3.63-2.14,7.18-4.24,10.79-6.37-3.61-2.08-7.18-4.13-10.79-6.22v12.59Z"/>
  </g>
</svg>